<svg xmlns="http://www.w3.org/2000/svg" width="800" height="500" viewBox="0 0 800 500" fill="none">
  <rect width="800" height="500" fill="#0c0c0e"/>
  <defs>
    <linearGradient id="g" x1="0" y1="0" x2="800" y2="500">
      <stop offset="0%" stop-color="#163300" stop-opacity="0.55"/>
      <stop offset="100%" stop-color="#0c0c0e" stop-opacity="0.2"/>
    </linearGradient>
  </defs>
  <rect width="800" height="500" fill="url(#g)"/>
  <rect x="120" y="60" width="560" height="46" rx="12" fill="#131316" stroke="#27272a"/>
  <circle cx="150" cy="83" r="9" fill="#a3e635"/>
  <rect x="180" y="74" width="90" height="10" rx="4" fill="#27272a"/>
  <rect x="530" y="66" width="130" height="34" rx="17" fill="#a3e635" opacity="0.9"/>
  <rect x="120" y="140" width="170" height="220" rx="16" fill="#131316" stroke="#27272a"/>
  <rect x="140" y="160" width="130" height="50" rx="10" fill="#18181b" stroke="#27272a"/>
  <rect x="150" y="162" width="110" height="10" rx="4" fill="#27272a"/>
  <rect x="150" y="180" width="80" height="10" rx="4" fill="#27272a"/>
  <circle cx="155" cy="248" r="6" fill="#a3e635"/>
  <rect x="170" y="240" width="90" height="10" rx="4" fill="#27272a"/>
  <circle cx="155" cy="278" r="6" fill="#a3e635"/>
  <rect x="170" y="270" width="90" height="10" rx="4" fill="#27272a"/>
  <circle cx="155" cy="308" r="6" fill="#a3e635"/>
  <rect x="170" y="300" width="90" height="10" rx="4" fill="#27272a"/>
  <rect x="310" y="140" width="170" height="220" rx="16" fill="#131316" stroke="#27272a"/>
  <rect x="330" y="160" width="130" height="50" rx="10" fill="#18181b" stroke="#27272a"/>
  <rect x="340" y="162" width="110" height="10" rx="4" fill="#27272a"/>
  <rect x="340" y="180" width="80" height="10" rx="4" fill="#27272a"/>
  <circle cx="345" cy="248" r="6" fill="#a3e635"/>
  <rect x="360" y="240" width="90" height="10" rx="4" fill="#27272a"/>
  <circle cx="345" cy="278" r="6" fill="#a3e635"/>
  <rect x="360" y="270" width="90" height="10" rx="4" fill="#27272a"/>
  <circle cx="345" cy="308" r="6" fill="#a3e635"/>
  <rect x="360" y="300" width="90" height="10" rx="4" fill="#27272a"/>
  <rect x="500" y="140" width="180" height="220" rx="16" fill="#131316" stroke="#27272a"/>
  <rect x="520" y="160" width="140" height="50" rx="10" fill="#18181b" stroke="#27272a"/>
  <rect x="530" y="162" width="120" height="10" rx="4" fill="#27272a"/>
  <rect x="530" y="180" width="90" height="10" rx="4" fill="#27272a"/>
  <rect x="520" y="230" width="140" height="110" rx="10" fill="#18181b" stroke="#27272a"/>
  <rect x="540" y="250" width="80" height="8" rx="4" fill="#a3e635"/>
  <rect x="540" y="270" width="100" height="8" rx="4" fill="#27272a"/>
  <rect x="540" y="290" width="70" height="8" rx="4" fill="#27272a"/>
  <rect x="120" y="390" width="560" height="2" fill="#27272a"/>
  <rect x="120" y="408" width="120" height="16" rx="8" fill="#27272a"/>
</svg>