<svg xmlns="http://www.w3.org/2000/svg" width="800" height="500" viewBox="0 0 800 500" fill="none">
  <rect width="800" height="500" fill="#0c0c0e"/>
  <defs>
    <linearGradient id="g" x1="0" y1="0" x2="800" y2="500">
      <stop offset="0%" stop-color="#163300" stop-opacity="0.55"/>
      <stop offset="100%" stop-color="#0c0c0e" stop-opacity="0.2"/>
    </linearGradient>
  </defs>
  <rect width="800" height="500" fill="url(#g)"/>
  <rect x="160" y="70" width="480" height="360" rx="16" fill="#131316" stroke="#27272a"/>
  <rect x="180" y="90" width="180" height="14" rx="4" fill="#27272a"/>
  <rect x="400" y="78" width="220" height="14" rx="4" fill="#27272a"/>
  <rect x="500" y="102" width="120" height="8" rx="4" fill="#3a5a00"/>
  <rect x="180" y="130" width="440" height="120" rx="12" fill="#18181b" stroke="#27272a"/>
  <rect x="205" y="150" width="150" height="10" rx="5" fill="#a3e635"/>
  <rect x="205" y="175" width="90" height="8" rx="4" fill="#27272a"/>
  <rect x="205" y="195" width="200" height="8" rx="4" fill="#27272a"/>
  <rect x="205" y="215" width="120" height="8" rx="4" fill="#27272a"/>
  <rect x="180" y="273" width="440" height="120" rx="12" fill="#18181b" stroke="#27272a"/>
  <rect x="205" y="293" width="160" height="10" rx="5" fill="#a3e635"/>
  <rect x="205" y="318" width="150" height="8" rx="4" fill="#27272a"/>
  <rect x="205" y="338" width="100" height="8" rx="4" fill="#27272a"/>
  <rect x="205" y="358" width="240" height="8" rx="4" fill="#27272a"/>
</svg>